# xmcd
#
# Track frame offsets: 
#        150
#        25957
#        48418
#        72526
#        88308
#        118543
#        144633
#        157671
#        172211
#        195987
#        215321
#        237249
#        252119
#        264219
#        280633
#        309111
#        334662
#
# Disc length: 4739 seconds
#
# Revision: 0
# Processed by: cddbd v1.5.2PL0 Copyright (c) Steve Scherf et al.
# Submitted via: ExactAudioCopy v1.3
#
DISCID=e8128111
DTITLE=Various Artist - Akella Presents - vol. 218 - Blues-Relax  CD1
DYEAR=2019
DGENRE=Blues
TTITLE0=The Groove Roasters - All Your Love
TTITLE1=Lucky Peterson - Dreamin' About You
TTITLE2=Peppe O Blues and Hell's Cobra - Something Burning Inside Me
TTITLE3=Blues Whale - What Else
TTITLE4=John Primer - Rainy Night In Georgia
TTITLE5=Cooker John - Won't Come over Now
TTITLE6=Fruteland Jackson - All Pain No Gain
TTITLE7=Tawl Paul - Autumn Leaves
TTITLE8=Philipp Fankhauser - You've Got to Hurt Before You Heal
TTITLE9=Don Ender - Coming Home
TTITLE10=CG and The Hammer - Feels Like Home
TTITLE11=Oscar Benton - Now I'm Coming Home
TTITLE12=Ed Maly - Boy Come On
TTITLE13=8 Ball Aitken - High Water
TTITLE14=Dennis Glen Avina - The Blue Side Of My Soul
TTITLE15=Desabelle - Mad City
TTITLE16=Sheryl Crow and Willie Nelson - Lonely Alone
EXTD=
EXTT0=
EXTT1=
EXTT2=
EXTT3=
EXTT4=
EXTT5=
EXTT6=
EXTT7=
EXTT8=
EXTT9=
EXTT10=
EXTT11=
EXTT12=
EXTT13=
EXTT14=
EXTT15=
EXTT16=
PLAYORDER=
